<svg width="33" height="27" viewBox="0 0 33 27" fill="none" xmlns="http://www.w3.org/2000/svg">
<path fill-rule="evenodd" clip-rule="evenodd" d="M16.4599 25.7036C11.7363 25.7036 7.70114 24.989 7.70114 22.1277C7.70114 19.2665 11.7101 16.7756 16.4599 16.7756C21.1834 16.7756 25.2186 19.2431 25.2186 22.1029C25.2186 24.9627 21.2097 25.7036 16.4599 25.7036Z" stroke="white" stroke-width="2" stroke-linecap="round" stroke-linejoin="round"/>
<path fill-rule="evenodd" clip-rule="evenodd" d="M16.4599 12.696C19.5603 12.696 22.0745 10.1833 22.0745 7.08284C22.0745 3.98243 19.5603 1.46826 16.4599 1.46826C13.3595 1.46826 10.8453 3.98243 10.8453 7.08284C10.8365 10.1716 13.3303 12.6858 16.4205 12.696H16.4599Z" stroke="white" stroke-width="2" stroke-linecap="round" stroke-linejoin="round"/>
<path d="M25.7782 11.1544C27.5822 10.6717 28.9122 9.02672 28.9122 7.06817C28.9122 5.02505 27.4641 3.3188 25.5361 2.92505" stroke="white" stroke-width="2" stroke-linecap="round" stroke-linejoin="round"/>
<path d="M26.6255 15.7522C29.1834 15.7522 31.368 17.4862 31.368 19.0349C31.368 19.9464 30.6141 20.9395 29.4707 21.2078" stroke="white" stroke-width="2" stroke-linecap="round" stroke-linejoin="round"/>
<path d="M7.14305 11.1544C5.33763 10.6717 4.00763 9.02672 4.00763 7.06817C4.00763 5.02505 5.45721 3.3188 7.38367 2.92505" stroke="white" stroke-width="2" stroke-linecap="round" stroke-linejoin="round"/>
<path d="M6.29429 15.7522C3.73637 15.7522 1.55179 17.4862 1.55179 19.0349C1.55179 19.9464 2.30575 20.9395 3.45054 21.2078" stroke="white" stroke-width="2" stroke-linecap="round" stroke-linejoin="round"/>
</svg>
