<svg width="34" height="15" viewBox="0 0 34 15" fill="none" xmlns="http://www.w3.org/2000/svg">
<path d="M15.2695 4.3125H16.2539V8.30078C16.2539 8.84505 16.0833 9.27734 15.7422 9.59766C15.4036 9.91797 14.9557 10.0781 14.3984 10.0781C13.8047 10.0781 13.3464 9.92839 13.0234 9.62891C12.7005 9.32943 12.5391 8.91276 12.5391 8.37891H13.5234C13.5234 8.68099 13.5977 8.90885 13.7461 9.0625C13.8971 9.21354 14.1146 9.28906 14.3984 9.28906C14.6641 9.28906 14.875 9.20182 15.0312 9.02734C15.1901 8.85026 15.2695 8.60677 15.2695 8.29688V4.3125ZM20.3594 8.53516C20.3594 8.28516 20.2708 8.09245 20.0938 7.95703C19.9193 7.82161 19.6029 7.6849 19.1445 7.54688C18.6862 7.40885 18.3216 7.25521 18.0508 7.08594C17.5326 6.76042 17.2734 6.33594 17.2734 5.8125C17.2734 5.35417 17.4596 4.97656 17.832 4.67969C18.207 4.38281 18.6927 4.23438 19.2891 4.23438C19.6849 4.23438 20.0378 4.30729 20.3477 4.45312C20.6576 4.59896 20.901 4.80729 21.0781 5.07812C21.2552 5.34635 21.3438 5.64453 21.3438 5.97266H20.3594C20.3594 5.67578 20.2656 5.44401 20.0781 5.27734C19.8932 5.10807 19.6276 5.02344 19.2812 5.02344C18.9583 5.02344 18.707 5.09245 18.5273 5.23047C18.3503 5.36849 18.2617 5.5612 18.2617 5.80859C18.2617 6.01693 18.3581 6.19141 18.5508 6.33203C18.7435 6.47005 19.0612 6.60547 19.5039 6.73828C19.9466 6.86849 20.3021 7.01823 20.5703 7.1875C20.8385 7.35417 21.0352 7.54688 21.1602 7.76562C21.2852 7.98177 21.3477 8.23568 21.3477 8.52734C21.3477 9.0013 21.1654 9.37891 20.8008 9.66016C20.4388 9.9388 19.9466 10.0781 19.3242 10.0781C18.9128 10.0781 18.5339 10.0026 18.1875 9.85156C17.8438 9.69792 17.5755 9.48698 17.3828 9.21875C17.1927 8.95052 17.0977 8.63802 17.0977 8.28125H18.0859C18.0859 8.60417 18.1927 8.85417 18.4062 9.03125C18.6198 9.20833 18.9258 9.29688 19.3242 9.29688C19.668 9.29688 19.9258 9.22786 20.0977 9.08984C20.2721 8.94922 20.3594 8.76432 20.3594 8.53516Z" fill="#D57B2D"/>
<rect x="0.5" y="0.5" width="33" height="14" rx="7" stroke="#D57B2D"/>
</svg>
