<svg width="45" height="15" viewBox="0 0 45 15" fill="none" xmlns="http://www.w3.org/2000/svg">
<path d="M16.7773 4.3125V8.11328C16.7773 8.71745 16.5833 9.19661 16.1953 9.55078C15.8099 9.90234 15.2956 10.0781 14.6523 10.0781C14.0013 10.0781 13.4844 9.90495 13.1016 9.55859C12.7188 9.20964 12.5273 8.72656 12.5273 8.10938V4.3125H13.5117V8.11719C13.5117 8.4974 13.6081 8.78776 13.8008 8.98828C13.9935 9.1888 14.2773 9.28906 14.6523 9.28906C15.4128 9.28906 15.793 8.88802 15.793 8.08594V4.3125H16.7773ZM19.793 6.36719L20.9883 4.3125H22.1289L20.4102 7.13281L22.168 10H21.0156L19.793 7.91406L18.5664 10H17.418L19.1797 7.13281L17.457 4.3125H18.5977L19.793 6.36719ZM23.0742 10.4883H22.3281L24.5664 4.3125H25.3125L23.0742 10.4883ZM30.2227 4.3125V8.11328C30.2227 8.71745 30.0286 9.19661 29.6406 9.55078C29.2552 9.90234 28.7409 10.0781 28.0977 10.0781C27.4466 10.0781 26.9297 9.90495 26.5469 9.55859C26.1641 9.20964 25.9727 8.72656 25.9727 8.10938V4.3125H26.957V8.11719C26.957 8.4974 27.0534 8.78776 27.2461 8.98828C27.4388 9.1888 27.7227 9.28906 28.0977 9.28906C28.8581 9.28906 29.2383 8.88802 29.2383 8.08594V4.3125H30.2227ZM32.3242 10H31.3398V4.3125H32.3242V10Z" fill="#D57B2D"/>
<rect x="0.5" y="0.5" width="44" height="14" rx="7" stroke="#D57B2D"/>
</svg>
