<svg width="127" height="35" viewBox="0 0 127 35" fill="none" xmlns="http://www.w3.org/2000/svg">
<rect x="0.5" width="126" height="35" rx="5" fill="#FFA800"/>
<path fill-rule="evenodd" clip-rule="evenodd" d="M34.75 12.1797C34.7568 12.627 34.6997 13.1877 34.6495 13.5967C34.6336 13.7318 34.6085 13.8657 34.5745 13.9975C35.2165 15.1654 35.5 16.5705 35.5 18.1053C35.5 19.9238 34.6098 21.4218 33.223 22.4431C31.849 23.4547 29.995 24 28 24C26.005 24 24.151 23.4547 22.777 22.4431C21.3902 21.4218 20.5 19.9238 20.5 18.1053C20.5 16.5705 20.7827 15.1654 21.4262 13.9975C21.3922 13.8657 21.3672 13.7318 21.3512 13.5967C21.2995 13.1877 21.2425 12.627 21.25 12.1797C21.2575 11.6765 21.325 11.1732 21.3992 10.6737C21.4337 10.4423 21.4877 10.2249 21.7435 10.0879C22.0045 9.94787 22.279 9.99945 22.5497 10.0753C23.4632 10.3296 24.3197 10.6869 25.1252 11.1143C25.975 10.8645 26.9335 10.737 28 10.737C29.0665 10.737 30.025 10.8645 30.874 11.115C31.6908 10.6763 32.5546 10.3279 33.4495 10.0761C33.7203 10.0002 33.9955 9.94787 34.2557 10.0879C34.5107 10.2249 34.5655 10.4423 34.6007 10.6737C34.6743 11.1732 34.7425 11.6765 34.75 12.1797ZM34 18.1053C34 16.8623 33.709 15.158 32.125 15.158C31.411 15.158 30.7352 15.3422 30.0602 15.5264C29.386 15.7106 28.7125 15.8948 28 15.8948C27.2875 15.8948 26.614 15.7106 25.9398 15.5264C25.2648 15.3422 24.5897 15.158 23.875 15.158C22.2955 15.158 22 16.8675 22 18.1053C22 19.4051 22.6202 20.486 23.677 21.2641C24.745 22.0518 26.2675 22.5263 28 22.5263C29.7325 22.5263 31.2542 22.0511 32.323 21.2641C33.3798 20.4853 34 19.4051 34 18.1053ZM26.5 18.4738C26.5 19.4906 25.996 20.3158 25.375 20.3158C24.754 20.3158 24.25 19.4906 24.25 18.4738C24.25 17.4569 24.754 16.6317 25.375 16.6317C25.996 16.6317 26.5 17.4569 26.5 18.4738ZM30.625 20.3158C31.246 20.3158 31.75 19.4906 31.75 18.4738C31.75 17.4569 31.246 16.6317 30.625 16.6317C30.004 16.6317 29.5 17.4569 29.5 18.4738C29.5 19.4906 30.004 20.3158 30.625 20.3158Z" fill="white"/>
<path d="M44.1548 18.0073L43.1074 19.1182V22H41.5015V12.7578H43.1074V17.0933L43.9961 15.9951L46.7002 12.7578H48.6426L45.2085 16.8521L48.8394 22H46.9351L44.1548 18.0073ZM50.9849 15.1318L51.0293 15.9253C51.5371 15.3117 52.2036 15.0049 53.0288 15.0049C54.4591 15.0049 55.187 15.8237 55.2124 17.4614V22H53.6699V17.5503C53.6699 17.1144 53.5747 16.7928 53.3843 16.5854C53.1981 16.3739 52.8913 16.2681 52.4639 16.2681C51.8418 16.2681 51.3784 16.5495 51.0737 17.1123V22H49.5312V15.1318H50.9849ZM56.501 18.5024C56.501 17.8296 56.6343 17.2244 56.9009 16.687C57.1675 16.1453 57.542 15.7306 58.0244 15.4429C58.5068 15.1509 59.0612 15.0049 59.6875 15.0049C60.6143 15.0049 61.3654 15.3032 61.9409 15.8999C62.5207 16.4966 62.8338 17.2879 62.8804 18.2739L62.8867 18.6357C62.8867 19.3128 62.7555 19.918 62.4932 20.4512C62.235 20.9844 61.8626 21.397 61.376 21.689C60.8936 21.981 60.335 22.127 59.7002 22.127C58.7311 22.127 57.9546 21.8053 57.3706 21.1621C56.7909 20.5146 56.501 19.6535 56.501 18.5786V18.5024ZM58.0435 18.6357C58.0435 19.3424 58.1895 19.8968 58.4814 20.2988C58.7734 20.6966 59.1797 20.8955 59.7002 20.8955C60.2207 20.8955 60.6248 20.6924 60.9126 20.2861C61.2046 19.8799 61.3506 19.2853 61.3506 18.5024C61.3506 17.8084 61.2004 17.2583 60.8999 16.8521C60.6037 16.4458 60.1995 16.2427 59.6875 16.2427C59.1839 16.2427 58.784 16.4437 58.4878 16.8457C58.1916 17.2435 58.0435 17.8402 58.0435 18.6357ZM70.2246 19.8735L71.3164 15.1318H72.8208L70.9482 22H69.6787L68.2061 17.2837L66.7588 22H65.4893L63.6104 15.1318H65.1147L66.2256 19.8228L67.6348 15.1318H68.7964L70.2246 19.8735ZM78.54 15.1318L78.5845 15.8491C79.0669 15.2863 79.7271 15.0049 80.5649 15.0049C81.4832 15.0049 82.1117 15.3561 82.4502 16.0586C82.9495 15.3561 83.652 15.0049 84.5576 15.0049C85.3151 15.0049 85.8779 15.2144 86.2461 15.6333C86.6185 16.0522 86.8089 16.6701 86.8174 17.4868V22H85.2749V17.5312C85.2749 17.0954 85.1797 16.7759 84.9893 16.5728C84.7988 16.3696 84.4836 16.2681 84.0435 16.2681C83.6922 16.2681 83.4045 16.3633 83.1802 16.5537C82.9601 16.7399 82.8057 16.9854 82.7168 17.29L82.7231 22H81.1807V17.4805C81.1595 16.6722 80.7469 16.2681 79.9429 16.2681C79.325 16.2681 78.887 16.5199 78.6289 17.0234V22H77.0864V15.1318H78.54ZM88.1123 18.5024C88.1123 17.8296 88.2456 17.2244 88.5122 16.687C88.7788 16.1453 89.1533 15.7306 89.6357 15.4429C90.1182 15.1509 90.6725 15.0049 91.2988 15.0049C92.2256 15.0049 92.9767 15.3032 93.5522 15.8999C94.132 16.4966 94.4451 17.2879 94.4917 18.2739L94.498 18.6357C94.498 19.3128 94.3669 19.918 94.1045 20.4512C93.8464 20.9844 93.474 21.397 92.9873 21.689C92.5049 21.981 91.9463 22.127 91.3115 22.127C90.3424 22.127 89.5659 21.8053 88.9819 21.1621C88.4022 20.5146 88.1123 19.6535 88.1123 18.5786V18.5024ZM89.6548 18.6357C89.6548 19.3424 89.8008 19.8968 90.0928 20.2988C90.3848 20.6966 90.791 20.8955 91.3115 20.8955C91.832 20.8955 92.2362 20.6924 92.5239 20.2861C92.8159 19.8799 92.9619 19.2853 92.9619 18.5024C92.9619 17.8084 92.8117 17.2583 92.5112 16.8521C92.215 16.4458 91.8109 16.2427 91.2988 16.2427C90.7952 16.2427 90.3953 16.4437 90.0991 16.8457C89.8029 17.2435 89.6548 17.8402 89.6548 18.6357ZM99.3984 16.541C99.1953 16.5072 98.9858 16.4902 98.77 16.4902C98.0633 16.4902 97.5872 16.7611 97.3418 17.3027V22H95.7993V15.1318H97.272L97.3101 15.8999C97.6825 15.3032 98.1987 15.0049 98.8589 15.0049C99.0789 15.0049 99.2609 15.0345 99.4048 15.0938L99.3984 16.541ZM103.271 22.127C102.293 22.127 101.5 21.8201 100.89 21.2065C100.285 20.5887 99.9824 19.7677 99.9824 18.7437V18.5532C99.9824 17.8677 100.114 17.2562 100.376 16.7188C100.643 16.1771 101.015 15.756 101.493 15.4556C101.971 15.1551 102.505 15.0049 103.093 15.0049C104.028 15.0049 104.75 15.3032 105.257 15.8999C105.769 16.4966 106.025 17.3408 106.025 18.4326V19.0547H101.538C101.584 19.6217 101.772 20.0703 102.103 20.4004C102.437 20.7305 102.856 20.8955 103.359 20.8955C104.066 20.8955 104.642 20.6099 105.086 20.0386L105.917 20.832C105.642 21.2425 105.274 21.562 104.813 21.7905C104.356 22.0148 103.842 22.127 103.271 22.127ZM103.086 16.2427C102.663 16.2427 102.32 16.3908 102.058 16.687C101.8 16.9832 101.635 17.3958 101.563 17.9248H104.502V17.8105C104.468 17.2943 104.331 16.9049 104.089 16.6426C103.848 16.376 103.514 16.2427 103.086 16.2427Z" fill="white"/>
</svg>
