<svg width="169" height="45" viewBox="0 0 169 45" fill="none" xmlns="http://www.w3.org/2000/svg">
<path d="M0.696 35V3.704H11.448C13.176 3.704 14.792 3.88 16.296 4.232C17.8 4.552 19.112 5.112 20.232 5.912C21.352 6.68 22.232 7.72 22.872 9.032C23.544 10.312 23.88 11.896 23.88 13.784C23.88 15.608 23.544 17.192 22.872 18.536C22.232 19.88 21.352 20.984 20.232 21.848C19.112 22.712 17.816 23.352 16.344 23.768C14.872 24.184 13.304 24.392 11.64 24.392H7.752V35H0.696ZM7.752 18.776H11.208C15.048 18.776 16.968 17.112 16.968 13.784C16.968 12.152 16.456 11 15.432 10.328C14.408 9.656 12.936 9.32 11.016 9.32H7.752V18.776ZM28.7138 35V11.192H34.4738L34.9538 15.368H35.1458C36.0098 13.736 37.0498 12.536 38.2657 11.768C39.4818 11 40.6978 10.616 41.9138 10.616C42.5858 10.616 43.1298 10.664 43.5458 10.76C43.9938 10.824 44.3938 10.936 44.7458 11.096L43.5938 17.192C43.1458 17.064 42.7298 16.968 42.3458 16.904C41.9618 16.84 41.5138 16.808 41.0018 16.808C40.1058 16.808 39.1618 17.128 38.1698 17.768C37.2098 18.408 36.4098 19.544 35.7698 21.176V35H28.7138ZM57.594 35.576C56.09 35.576 54.634 35.304 53.226 34.76C51.818 34.184 50.57 33.368 49.482 32.312C48.426 31.256 47.578 29.96 46.938 28.424C46.298 26.856 45.978 25.08 45.978 23.096C45.978 21.112 46.298 19.352 46.938 17.816C47.578 16.248 48.426 14.936 49.482 13.88C50.57 12.824 51.818 12.024 53.226 11.48C54.634 10.904 56.09 10.616 57.594 10.616C59.098 10.616 60.538 10.904 61.914 11.48C63.322 12.024 64.554 12.824 65.61 13.88C66.698 14.936 67.562 16.248 68.202 17.816C68.842 19.352 69.162 21.112 69.162 23.096C69.162 25.08 68.842 26.856 68.202 28.424C67.562 29.96 66.698 31.256 65.61 32.312C64.554 33.368 63.322 34.184 61.914 34.76C60.538 35.304 59.098 35.576 57.594 35.576ZM57.594 29.864C59.034 29.864 60.122 29.256 60.858 28.04C61.594 26.824 61.962 25.176 61.962 23.096C61.962 21.016 61.594 19.368 60.858 18.152C60.122 16.936 59.034 16.328 57.594 16.328C56.122 16.328 55.018 16.936 54.282 18.152C53.578 19.368 53.226 21.016 53.226 23.096C53.226 25.176 53.578 26.824 54.282 28.04C55.018 29.256 56.122 29.864 57.594 29.864ZM72.603 44.408C71.611 44.408 70.795 44.344 70.155 44.216C69.483 44.088 68.907 43.928 68.427 43.736L69.675 38.552C69.995 38.648 70.299 38.728 70.587 38.792C70.875 38.856 71.195 38.888 71.547 38.888C72.475 38.888 73.115 38.584 73.467 37.976C73.851 37.368 74.043 36.392 74.043 35.048V11.192H81.099V34.856C81.099 36.168 80.955 37.4 80.667 38.552C80.411 39.704 79.947 40.712 79.275 41.576C78.635 42.44 77.771 43.128 76.683 43.64C75.595 44.152 74.235 44.408 72.603 44.408ZM77.595 7.688C76.411 7.688 75.435 7.352 74.667 6.68C73.899 5.976 73.515 5.08 73.515 3.992C73.515 2.904 73.899 2.024 74.667 1.352C75.435 0.679997 76.411 0.343997 77.595 0.343997C78.779 0.343997 79.755 0.679997 80.523 1.352C81.291 2.024 81.675 2.904 81.675 3.992C81.675 5.08 81.291 5.976 80.523 6.68C79.755 7.352 78.779 7.688 77.595 7.688ZM98.0104 35.576C96.3144 35.576 94.7304 35.304 93.2584 34.76C91.7864 34.184 90.5064 33.368 89.4184 32.312C88.3304 31.224 87.4824 29.912 86.8744 28.376C86.2664 26.84 85.9624 25.08 85.9624 23.096C85.9624 21.176 86.2824 19.448 86.9224 17.912C87.5624 16.344 88.3944 15.032 89.4184 13.976C90.4744 12.888 91.6744 12.056 93.0184 11.48C94.3624 10.904 95.7544 10.616 97.1944 10.616C98.8904 10.616 100.362 10.904 101.61 11.48C102.89 12.056 103.946 12.856 104.778 13.88C105.642 14.904 106.282 16.12 106.698 17.528C107.114 18.904 107.322 20.408 107.322 22.04C107.322 22.68 107.29 23.288 107.226 23.864C107.162 24.44 107.098 24.872 107.034 25.16H92.7784C93.0984 26.888 93.8024 28.168 94.8904 29C96.0104 29.8 97.3704 30.2 98.9704 30.2C100.666 30.2 102.378 29.672 104.106 28.616L106.458 32.888C105.242 33.72 103.882 34.376 102.378 34.856C100.906 35.336 99.4504 35.576 98.0104 35.576ZM92.7304 20.504H101.322C101.322 19.16 101.018 18.072 100.41 17.24C99.8024 16.408 98.7784 15.992 97.3384 15.992C96.2184 15.992 95.2264 16.36 94.3624 17.096C93.5304 17.832 92.9864 18.968 92.7304 20.504ZM122.566 35.576C120.902 35.576 119.35 35.304 117.91 34.76C116.502 34.184 115.27 33.368 114.214 32.312C113.158 31.256 112.326 29.96 111.718 28.424C111.11 26.856 110.806 25.08 110.806 23.096C110.806 21.112 111.142 19.352 111.814 17.816C112.486 16.248 113.382 14.936 114.502 13.88C115.654 12.824 116.982 12.024 118.486 11.48C119.99 10.904 121.558 10.616 123.19 10.616C124.662 10.616 125.958 10.856 127.078 11.336C128.23 11.816 129.254 12.424 130.15 13.16L126.838 17.72C125.718 16.792 124.646 16.328 123.622 16.328C121.894 16.328 120.534 16.936 119.542 18.152C118.55 19.368 118.054 21.016 118.054 23.096C118.054 25.176 118.55 26.824 119.542 28.04C120.566 29.256 121.846 29.864 123.382 29.864C124.15 29.864 124.886 29.704 125.59 29.384C126.326 29.032 127.014 28.616 127.654 28.136L130.438 32.744C129.254 33.768 127.974 34.504 126.598 34.952C125.222 35.368 123.878 35.576 122.566 35.576ZM143.304 35.576C141.832 35.576 140.568 35.352 139.512 34.904C138.488 34.456 137.64 33.832 136.968 33.032C136.328 32.232 135.848 31.272 135.528 30.152C135.24 29 135.096 27.736 135.096 26.36V16.712H131.832V11.48L135.48 11.192L136.296 4.856H142.152V11.192H147.864V16.712H142.152V26.264C142.152 27.608 142.424 28.584 142.968 29.192C143.544 29.768 144.296 30.056 145.224 30.056C145.608 30.056 145.992 30.008 146.376 29.912C146.792 29.816 147.16 29.704 147.48 29.576L148.584 34.712C147.944 34.904 147.192 35.096 146.328 35.288C145.464 35.48 144.456 35.576 143.304 35.576ZM159.05 35.576C157.482 35.576 155.866 35.272 154.202 34.664C152.57 34.056 151.146 33.256 149.93 32.264L153.098 27.848C154.186 28.68 155.226 29.304 156.218 29.72C157.21 30.136 158.218 30.344 159.242 30.344C160.298 30.344 161.066 30.168 161.546 29.816C162.026 29.464 162.266 28.968 162.266 28.328C162.266 27.944 162.122 27.608 161.834 27.32C161.578 27 161.21 26.712 160.73 26.456C160.282 26.2 159.77 25.976 159.194 25.784C158.618 25.56 158.026 25.32 157.418 25.064C156.682 24.776 155.946 24.44 155.21 24.056C154.474 23.672 153.802 23.208 153.194 22.664C152.586 22.088 152.09 21.432 151.706 20.696C151.322 19.928 151.13 19.048 151.13 18.056C151.13 16.968 151.338 15.96 151.754 15.032C152.202 14.104 152.826 13.32 153.626 12.68C154.426 12.04 155.386 11.544 156.506 11.192C157.626 10.808 158.874 10.616 160.25 10.616C162.074 10.616 163.674 10.936 165.05 11.576C166.426 12.184 167.626 12.872 168.65 13.64L165.482 17.864C164.618 17.224 163.77 16.728 162.938 16.376C162.106 16.024 161.274 15.848 160.442 15.848C158.65 15.848 157.754 16.472 157.754 17.72C157.754 18.104 157.882 18.44 158.138 18.728C158.394 18.984 158.73 19.224 159.146 19.448C159.594 19.672 160.09 19.896 160.634 20.12C161.21 20.312 161.802 20.52 162.41 20.744C163.178 21.032 163.93 21.368 164.666 21.752C165.434 22.104 166.122 22.552 166.73 23.096C167.37 23.64 167.882 24.312 168.266 25.112C168.65 25.88 168.842 26.808 168.842 27.896C168.842 28.984 168.634 29.992 168.218 30.92C167.802 31.848 167.178 32.664 166.346 33.368C165.514 34.04 164.49 34.584 163.274 35C162.058 35.384 160.65 35.576 159.05 35.576Z" fill="#FFA800"/>
</svg>
